# xmcd
#
# Track frame offsets:
#	150
#	12372
#	25785
#	54175
#	76352
#	97957
#	108527
#	122730
#	144095
#	164382
#	183430
#	200142
#
# Disc length: 2961
#
# Revision: 1
# Processed by: cddbd v1.5.1PL0 Copyright (c) Steve Scherf et al.
# Submitted via: CDex 1.50beta8
# Normalized: r0:TDELIM( - )
#
DISCID=950b8f0c
DTITLE=Various Artist - A Taste of New Orleans
DYEAR=2001
DGENRE=Jazz
TTITLE0=Bo Dollis and the Wild Magnolias - Carnival Time
TTITLE1=Irma Thomas - I'll Be Satisfied
TTITLE2=Rebirth Brasss Band - Do Whatcha Wanna
TTITLE3=Beau Jocque and the Zydeco Hi-Rollers - Give Him Cornbread
TTITLE4=Walter "Wolfman" Washington and The Roadmasters - Mary Ann
TTITLE5=Marcia Ball - I Don't Know
TTITLE6=Johnny Adams and Harry Connick, Jr - A Lot of Living to Do
TTITLE7=Rebirth Brass Band - Big Fat Woman
TTITLE8=Marcia Ball - That's Enough of That Stuff
TTITLE9=Irma Thomas - I never Fool Nobody But Me
TTITLE10=Davell Crawford - Something You Got
TTITLE11=Johnny Adams and Aaron Neville - Never Alone
EXTD=YEAR: 2001
EXTT0=
EXTT1=
EXTT2=
EXTT3=
EXTT4=
EXTT5=
EXTT6=
EXTT7=
EXTT8=
EXTT9=
EXTT10=
EXTT11=
PLAYORDER=
